<?xml version="1.0" encoding="utf-8"?>
<!-- Generator: Adobe Illustrator 26.4.1, SVG Export Plug-In . SVG Version: 6.00 Build 0)  -->
<svg version="1.1" id="Layer_1" xmlns="http://www.w3.org/2000/svg" xmlns:xlink="http://www.w3.org/1999/xlink" x="0px" y="0px"
	 viewBox="0 0 271 229.2" style="enable-background:new 0 0 271 229.2;" xml:space="preserve">
<style type="text/css">
	.st0{fill-rule:evenodd;clip-rule:evenodd;fill:#F04923;}
	.st1{fill-rule:evenodd;clip-rule:evenodd;fill:#F9AE1C;}
	.st2{fill-rule:evenodd;clip-rule:evenodd;fill:#F89521;}
	.st3{fill-rule:evenodd;clip-rule:evenodd;fill:#F47422;}
	.st4{fill-rule:evenodd;clip-rule:evenodd;fill:#FFFFFF;}
	.st5{fill:#565656;}
</style>
<g>
	<g>
		<g id="Rounded_Rectangle_1">
			<g>
				<path class="st0" d="M171.6,15c-20-20-52.4-20-72.4,0L0,114.2l99.1,99.2c20,20,52.4,20,72.4,0l99.2-99.1L171.6,15z"/>
			</g>
		</g>
		<g id="Rounded_Rectangle_1_copy">
			<g>
				<path class="st1" d="M215.4,58.9L80.8,195.1l18.3,18.3c20,20,52.4,20,72.4,0l99.2-99.1L215.4,58.9z"/>
			</g>
		</g>
		<g id="Rounded_Rectangle_1_copy_2">
			<g>
				<path class="st2" d="M216.8,60.3l-45.2-45.2c-20-20-52.4-20-72.4,0L0,114.2L96.7,211C203.3,169.7,215.5,84.3,216.8,60.3z"/>
			</g>
		</g>
		<g id="Rounded_Rectangle_1_copy_4">
			<g>
				<path class="st3" d="M182.6,26.1l-11-11c-20-20-52.4-20-72.4,0L0,114.2l65.9,65.9C80.8,175,172.4,139.5,182.6,26.1z"/>
			</g>
		</g>
		<g id="Rounded_Rectangle_1_copy_3">
			<g>
				<path class="st0" d="M143.4,0.7C127.8-1.8,111.2,3,99.2,15.1L0,114.2l29.9,30C42.4,140.1,131.1,108,143.4,0.7z"/>
			</g>
		</g>
		<g id="Ellipse_1">
			<g>
				<path class="st4" d="M140.8,166.1c-25.1-4-44.3-25.5-44.3-51.5c0-25.6,18.7-46.9,43.3-51.3c2.6-4,5.5-7.8,8.7-11.2
					c-34.7,1.9-62.3,29-62.3,62.1c0,33.3,27.8,60.5,62.8,62.2C146,173.2,143.3,169.7,140.8,166.1z"/>
			</g>
		</g>
		<g id="Rectangle_1">
			<g>
				<path class="st4" d="M125.6,114.6v-0.8c0-12.4,10-22.4,22.4-22.4h16.5v-9.7h-17.3c-17.2,0-31.1,13.9-31.1,31.1v3.5
					c0,17.2,13.9,31.1,31.1,31.1h20v-10.3H148C135.7,137,125.6,127,125.6,114.6z"/>
			</g>
		</g>
		<g id="Ellipse_2">
			<g>
				<path class="st4" d="M164.8,51.9c-10.9,0-19.7,8.8-19.7,19.7c0,1.4,0.1,2.7,0.4,4.1h10.6c-0.5-1.1-0.7-2.4-0.7-3.6
					c0-5.3,4.3-9.6,9.6-9.6s9.6,4.3,9.6,9.6c0,4.9-3.7,8.9-8.4,9.5v0.1h-18.3c3.4,5.8,9.7,9.7,17,9.7c10.9,0,19.7-8.8,19.7-19.7
					C184.5,60.8,175.7,51.9,164.8,51.9z"/>
			</g>
		</g>
		<g id="Ellipse_2_copy">
			<g>
				<path class="st4" d="M167.9,137h-6.3c-6.2,1-11.4,4.9-14.2,10.3H164l0,0c0.3,0,0.6,0,0.9,0c5.3,0,9.6,4.3,9.6,9.6
					s-4.3,9.6-9.6,9.6s-9.6-4.3-9.6-9.6c0-1.2,0.2-2.3,0.6-3.4h-10.6c-0.1,1-0.2,2-0.2,3c0,10.9,8.8,19.7,19.7,19.7
					s19.7-8.8,19.7-19.7C184.5,146.6,177.3,138.5,167.9,137z"/>
			</g>
		</g>
	</g>
	<g>
		<path class="st5" d="M271,219c0,5.6-4.4,10-10.1,10c-5.7,0-10.2-4.4-10.2-10c0-5.5,4.5-9.9,10.2-9.9
			C266.6,209.1,271,213.5,271,219z M253.2,219c0,4.4,3.3,7.9,7.7,7.9c4.3,0,7.5-3.5,7.5-7.8c0-4.4-3.2-7.9-7.6-7.9
			C256.5,211.1,253.2,214.7,253.2,219z M259.3,224.2H257v-9.9c0.9-0.2,2.2-0.3,3.8-0.3c1.9,0,2.7,0.3,3.4,0.7c0.5,0.4,1,1.2,1,2.2
			c0,1.1-0.8,1.9-2,2.3v0.1c1,0.4,1.5,1.1,1.8,2.4c0.3,1.5,0.5,2.1,0.7,2.5h-2.5c-0.3-0.4-0.5-1.3-0.8-2.4c-0.2-1.1-0.8-1.6-2-1.6
			h-1.1V224.2z M259.4,218.6h1.1c1.3,0,2.3-0.4,2.3-1.4c0-0.9-0.7-1.5-2.1-1.5c-0.6,0-1,0.1-1.3,0.1V218.6z"/>
	</g>
</g>
</svg>
