<?xml version="1.0" encoding="utf-8"?>
<!-- Generator: Adobe Illustrator 26.4.1, SVG Export Plug-In . SVG Version: 6.00 Build 0)  -->
<svg version="1.1" id="Ebene_1" xmlns:sketch="http://www.bohemiancoding.com/sketch/ns"
	 xmlns="http://www.w3.org/2000/svg" xmlns:xlink="http://www.w3.org/1999/xlink" x="0px" y="0px" viewBox="0 0 17.6 18"
	 style="enable-background:new 0 0 17.6 18;" xml:space="preserve">
<style type="text/css">
	.st0{fill-rule:evenodd;clip-rule:evenodd;fill:#4285F4;}
	.st1{fill-rule:evenodd;clip-rule:evenodd;fill:#34A853;}
	.st2{fill-rule:evenodd;clip-rule:evenodd;fill:#FBBC05;}
	.st3{fill-rule:evenodd;clip-rule:evenodd;fill:#EA4335;}
	.st4{fill:none;}
</style>
<g id="Google-Button" sketch:type="MSPage">
	<g id="_x39_-PATCH" transform="translate(-608.000000, -160.000000)" sketch:type="MSArtboardGroup">
	</g>
	<g id="btn_google_light_normal" transform="translate(-1.000000, -1.000000)" sketch:type="MSArtboardGroup">
		<g id="logo_googleg_48dp" transform="translate(15.000000, 15.000000)" sketch:type="MSLayerGroup">
			<path id="Shape" sketch:type="MSShapeGroup" class="st0" d="M3.6-4.8c0-0.6-0.1-1.3-0.2-1.8H-5v3.5h4.8C-0.4-2-1-1.1-2-0.4v2.3H1
				C2.7,0.3,3.6-2.1,3.6-4.8L3.6-4.8z"/>
			<path id="Shape_00000065046654206361406260000014222400756160834721_" sketch:type="MSShapeGroup" class="st1" d="M-5,4
				c2.4,0,4.5-0.8,6-2.2L-2-0.4c-0.8,0.5-1.8,0.9-3,0.9c-2.3,0-4.3-1.6-5-3.7h-3V-1C-11.6,2-8.5,4-5,4L-5,4z"/>
			<path id="Shape_00000111892573858437371060000005567758510798269872_" sketch:type="MSShapeGroup" class="st2" d="M-10-3.3
				c-0.2-0.5-0.3-1.1-0.3-1.7s0.1-1.2,0.3-1.7V-9h-3c-0.6,1.2-1,2.6-1,4s0.3,2.8,1,4L-10-3.3L-10-3.3z"/>
			<path id="Shape_00000087383103775089594560000003924439671982113688_" sketch:type="MSShapeGroup" class="st3" d="M-5-10.4
				c1.3,0,2.5,0.5,3.4,1.3L1-11.7C-0.5-13.1-2.6-14-5-14c-3.5,0-6.6,2-8,5l3,2.3C-9.3-8.8-7.3-10.4-5-10.4L-5-10.4z"/>
			<path id="Shape_00000181079156074791340390000006807559845672205715_" sketch:type="MSShapeGroup" class="st4" d="M-14-14H4V4
				h-18V-14z"/>
		</g>
	</g>
</g>
</svg>
