<?xml version="1.0" encoding="utf-8"?>
<!-- Generator: Adobe Illustrator 26.4.1, SVG Export Plug-In . SVG Version: 6.00 Build 0)  -->
<svg version="1.1" id="Layer_1" xmlns="http://www.w3.org/2000/svg" xmlns:xlink="http://www.w3.org/1999/xlink" x="0px" y="0px"
	 viewBox="0 0 494.8 415.8" style="enable-background:new 0 0 494.8 415.8;" xml:space="preserve">
<style type="text/css">
	.st0{clip-path:url(#SVGID_00000170996840278222562060000008529401712392997787_);}
	.st1{fill:#4D4D4D;}
	.st2{fill:none;}
	.st3{fill:#E1E1E1;}
	.st4{fill:#C8C8C8;}
	.st5{fill:#C2C2C2;}
	.st6{fill:#C7C7C7;}
	.st7{fill:#CECECE;}
	.st8{fill:#D3D3D3;}
	.st9{fill:#C6C6C6;}
	.st10{fill:#D5D5D5;}
	.st11{fill:#D0D0D0;}
	.st12{fill:#BFBFBF;}
	.st13{fill:#D9D9D9;}
	.st14{fill:#D4D4D4;}
	.st15{fill:#D8D8D8;}
	.st16{fill:#E2E2E2;}
	.st17{fill:#E4E4E4;}
	.st18{fill:#DEDEDE;}
	.st19{fill:#C5C5C5;}
	.st20{fill:#D1D1D1;}
	.st21{fill:#DDDDDD;}
	.st22{fill:#E3E3E3;}
	.st23{fill:#00B8E3;}
	.st24{fill:#33C6E9;}
	.st25{fill:#008AAA;}
</style>
<g>
	<defs>
		<rect id="SVGID_1_" x="-17.2" y="-48" width="512" height="512"/>
	</defs>
	<clipPath id="SVGID_00000161606503540490224430000011516351484522958765_">
		<use xlink:href="#SVGID_1_"  style="overflow:visible;"/>
	</clipPath>
	<g style="clip-path:url(#SVGID_00000161606503540490224430000011516351484522958765_);">
		<path class="st1" d="M421.3,103.9c-1.4,0-2.6-0.7-3.3-1.9L360.2,1.9c-0.7-1.2-2-1.9-3.4-1.9H121.2c-1.4,0-2.6,0.7-3.3,1.9
			l-60,103.9l0,0L0,206c-0.7,1.2-0.7,2.6,0,3.8L57.8,310l60,104c0.7,1.2,2,1.9,3.3,1.9h235.7c1.4,0,2.6-0.7,3.4-1.9L418,313.9
			c0.7-1.2,2-1.9,3.3-1.9h71.9c2.4,0,4.3-1.9,4.3-4.3l0,0V108.3c0-2.4-1.9-4.3-4.3-4.3l0,0H421.3L421.3,103.9z"/>
		<path class="st2" d="M493.3,103.9H61.2c-1.4,0-2.6,0.7-3.3,1.9v0.1l-2.1,3.7l-26.5,45.8L0,206.1c-0.7,1.2-0.7,2.6,0,3.8l6.4,11
			L57.8,310c0.7,1.2,2,1.9,3.3,1.9h432.2c2.4,0,4.2-1.9,4.2-4.3V108.3C497.6,105.9,495.7,104,493.3,103.9
			C493.3,103.9,493.3,103.9,493.3,103.9z"/>
		<path class="st3" d="M70.9,197.4L6.4,220.9l-6.4-11c-0.7-1.2-0.7-2.6,0-3.8l29.2-50.6L70.9,197.4z"/>
		<polygon class="st4" points="455,216.2 497.6,210.1 497.6,259.4 		"/>
		<path class="st5" d="M455,216.2l42.6,43.3v48.2c0,2.4-1.9,4.3-4.2,4.3h-49.5L455,216.2z"/>
		<polygon class="st6" points="455,216.2 443.8,311.9 384.3,311.9 366.2,268.5 		"/>
		<polygon class="st7" points="455,216.2 497.6,164.4 497.6,210.1 		"/>
		<path class="st8" d="M497.6,108.3v56.1l-42.5,51.8l-32.1-112.2h70.3C495.7,103.9,497.6,105.9,497.6,108.3
			C497.6,108.3,497.6,108.3,497.6,108.3z"/>
		<polygon class="st9" points="384.3,311.9 352.9,311.9 344.8,300.3 366.2,268.5 		"/>
		<polygon class="st10" points="455,216.2 337.2,166.4 399.2,104 422.9,104 		"/>
		<path class="st11" d="M337.2,166.4l29,102.1l88.8-52.3L337.2,166.4z"/>
		<polygon class="st12" points="352.9,311.9 344.4,311.9 344.8,300.3 		"/>
		<polygon class="st13" points="399.2,104 337.2,166.4 326.1,110.6 350,104 		"/>
		<path class="st14" d="M337.2,166.4l-143,33l150.5,100.9L337.2,166.4z"/>
		<path class="st11" d="M337.2,166.4l7.5,133.9l21.5-31.8L337.2,166.4z"/>
		<path class="st13" d="M326.1,110.6l-131.8,88.8l143-33L326.1,110.6z"/>
		<polygon class="st15" points="194.3,199.3 132.3,311.9 97,311.9 70.9,197.4 		"/>
		<path class="st16" d="M130.8,103.9l-59.8,93.5l-15.2-87.9l2.2-3.7v-0.1c0.7-1.2,2-1.9,3.3-1.9H130.8z"/>
		<path class="st15" d="M97,312H61.2c-1.4,0-2.7-0.8-3.3-2L6.4,220.9l64.6-23.4L97,312z"/>
		<polygon class="st17" points="70.9,197.4 29.2,155.4 55.7,109.6 		"/>
		<polygon class="st18" points="259.6,104 218.4,104 155.2,104 194.3,199.3 326.1,110.6 286.3,104 		"/>
		<polygon class="st18" points="138.9,104 130.8,104 70.9,197.4 194.3,199.3 155.2,104 		"/>
		<polygon class="st19" points="316.1,311.9 339,311.9 344.4,311.9 344.8,300.3 		"/>
		<polygon class="st11" points="344.8,300.3 194.3,199.3 221.4,311.9 259.6,311.9 316.1,311.9 		"/>
		<polygon class="st20" points="132.3,311.9 138.9,311.9 218.4,311.9 221.4,311.9 194.3,199.3 		"/>
		<polygon class="st21" points="326.5,104 326.1,110.6 350,104 339,104 		"/>
		<polygon class="st22" points="286.3,104 326.1,110.6 322.4,104 		"/>
		<polygon class="st16" points="322.4,104 326.1,110.6 326.5,104 		"/>
		<path class="st23" d="M218,105.8l-58.1,100.7c-0.3,0.5-0.4,1.1-0.4,1.6h-40.5l79.7-138.2c0.5,0.3,0.9,0.7,1.2,1.2l0.1,0.1
			l18.1,31.4C218.5,103.6,218.5,104.8,218,105.8z"/>
		<path class="st24" d="M217.9,313.8l-18,31.3c-0.3,0.5-0.7,0.9-1.2,1.1l-79.9-138.2l0,0h40.6c0,0.5,0.1,1.1,0.4,1.6
			c0,0.1,0,0.1,0.1,0.2l58,100.6C218.5,311.5,218.5,312.8,217.9,313.8z"/>
		<path class="st25" d="M198.6,69.9l-79.7,138.2l0,0l0,0l-20,34.7l-19.1-33.1c-0.3-0.5-0.4-1-0.4-1.6c0-0.6,0.1-1.1,0.4-1.6
			l19.3-33.4l58.8-101.7c0.6-1.1,1.8-1.8,3-1.8h36C197.5,69.5,198.1,69.6,198.6,69.9z"/>
		<path class="st23" d="M198.6,346.3c-0.5,0.3-1.1,0.4-1.7,0.5h-36.1c-1.2,0-2.4-0.7-3-1.8l-53.7-93l-5.3-9.2l20-34.7L198.6,346.3z"
			/>
		<path class="st25" d="M359,208.1l-79.8,138.2c-0.5-0.3-0.9-0.7-1.2-1.1L278,345l-18.1-31.3c-0.5-1-0.5-2.2,0-3.2l58.1-100.7
			c0.3-0.5,0.5-1.1,0.5-1.8H359L359,208.1z"/>
		<path class="st23" d="M398.5,208.1c0,0.6-0.2,1.2-0.5,1.8l-78.1,135.3c-0.6,1-1.7,1.6-2.9,1.6h-36c-0.6,0-1.2-0.2-1.8-0.5
			L359,208.1l20-34.6l19,32.9C398.3,206.9,398.5,207.4,398.5,208.1z"/>
		<path class="st23" d="M359,208.1h-40.6c0-0.6-0.2-1.2-0.5-1.7l-58-100.6c-0.6-1.1-0.6-2.4,0-3.5L278,71c0.3-0.5,0.7-0.9,1.2-1.1
			L359,208.1z"/>
		<path class="st24" d="M379,173.4L379,173.4L359,208L279.2,69.9c0.5-0.3,1.1-0.4,1.8-0.4h36c1.2,0,2.3,0.6,2.9,1.6L379,173.4z"/>
	</g>
</g>
</svg>
