<?xml version="1.0" encoding="utf-8"?>
<!-- Generator: Adobe Illustrator 26.4.1, SVG Export Plug-In . SVG Version: 6.00 Build 0)  -->
<svg version="1.1" id="Ebene_1" xmlns="http://www.w3.org/2000/svg" xmlns:xlink="http://www.w3.org/1999/xlink" x="0px" y="0px"
	 viewBox="0 0 640 200" style="enable-background:new 0 0 640 200;" xml:space="preserve">
<style type="text/css">
	.st0{fill:#F39423;}
	.st1{fill:#BCBDC0;}
	.st2{fill:#232020;}
</style>
<polygon class="st0" points="96.8,17.5 96.8,177.4 96.8,197.5 128.8,182.4 128.8,1.9 "/>
<polyline class="st1" points="207.6,70.3 212,116.2 150.1,102.7 "/>
<path class="st1" d="M134.4,61.1v20.3c13.4,2.3,25.4,6.7,35,12.6l22.6-14C176.5,70.5,156.6,63.8,134.4,61.1 M32.8,129
	c0-22.7,24.7-41.8,58.4-47.6V61.1C39.6,67.3,0.8,95.3,0.8,129c0,34.9,41.7,63.7,96,68.5v-20.1C60.2,172.9,32.8,152.9,32.8,129"/>
<path class="st2" d="M248,102.2c1.8-5.6,4.4-10.5,8-14.8c3.6-4.3,8-7.7,13.3-10.3c5.3-2.6,11.4-3.8,18.5-3.8c7,0,13.2,1.3,18.5,3.8
	c5.3,2.6,9.7,6,13.3,10.3c3.5,4.3,6.2,9.2,8,14.8c1.8,5.6,2.7,11.4,2.7,17.4c0,6-0.9,11.8-2.7,17.4c-1.8,5.6-4.4,10.5-8,14.8
	c-3.6,4.3-8,7.7-13.3,10.2c-5.3,2.5-11.4,3.8-18.5,3.8c-7,0-13.2-1.3-18.5-3.8c-5.3-2.5-9.7-5.9-13.3-10.2c-3.6-4.3-6.2-9.2-8-14.8
	c-1.8-5.6-2.7-11.4-2.7-17.4C245.3,113.6,246.2,107.8,248,102.2 M258.8,132.8c1.2,4.3,3,8.2,5.5,11.7c2.5,3.5,5.7,6.3,9.5,8.4
	c3.9,2.1,8.5,3.2,13.9,3.2c5.4,0,10-1.1,13.9-3.2c3.9-2.1,7.1-4.9,9.5-8.4c2.5-3.5,4.3-7.4,5.5-11.7c1.2-4.3,1.7-8.7,1.7-13.2
	c0-4.5-0.6-8.9-1.7-13.2c-1.2-4.3-3-8.2-5.5-11.7c-2.5-3.5-5.7-6.3-9.5-8.4c-3.9-2.1-8.5-3.2-13.9-3.2c-5.4,0-10,1.1-13.9,3.2
	c-3.9,2.1-7.1,4.9-9.5,8.4c-2.5,3.5-4.3,7.4-5.5,11.7c-1.2,4.3-1.7,8.7-1.7,13.2C257.1,124.1,257.7,128.5,258.8,132.8"/>
<path class="st2" d="M349.9,99.8v8.7h0.2c1.7-3.5,4.5-6.1,8.2-7.7c3.7-1.6,7.8-2.4,12.3-2.4c5,0,9.3,0.9,12.9,2.7
	c3.7,1.8,6.7,4.3,9.2,7.4c2.4,3.1,4.3,6.7,5.5,10.7c1.2,4,1.9,8.3,1.9,12.9c0,4.5-0.6,8.8-1.8,12.9c-1.2,4-3,7.6-5.5,10.6
	c-2.4,3-5.5,5.4-9.2,7.1c-3.7,1.7-8,2.6-12.8,2.6c-1.6,0-3.3-0.2-5.3-0.5c-1.9-0.3-3.9-0.9-5.8-1.6c-1.9-0.7-3.7-1.8-5.4-3
	c-1.7-1.3-3.1-2.9-4.3-4.8h-0.2v33h-10.5V99.8H349.9z M387.7,122.5c-0.8-2.8-2-5.4-3.6-7.6c-1.6-2.2-3.7-4-6.2-5.3
	c-2.5-1.3-5.5-2-8.9-2c-3.6,0-6.6,0.7-9,2.1c-2.5,1.4-4.5,3.2-6.1,5.5c-1.6,2.3-2.7,4.9-3.4,7.7c-0.7,2.9-1.1,5.8-1.1,8.8
	c0,3.1,0.4,6.2,1.1,9.1c0.7,2.9,1.9,5.5,3.5,7.7c1.6,2.2,3.7,4,6.3,5.4c2.6,1.4,5.7,2,9.3,2c3.6,0,6.7-0.7,9.1-2.1
	c2.4-1.4,4.4-3.3,5.9-5.6c1.5-2.3,2.6-5,3.2-7.9c0.7-3,1-6,1-9.2C388.9,128.3,388.5,125.4,387.7,122.5"/>
<path class="st2" d="M455.3,159.7c-4.8,3.6-10.8,5.5-18.1,5.5c-5.1,0-9.6-0.8-13.3-2.5c-3.8-1.7-6.9-4-9.5-6.9
	c-2.6-3-4.5-6.5-5.8-10.7c-1.3-4.1-2-8.6-2.2-13.5c0-4.9,0.7-9.3,2.2-13.4c1.5-4,3.6-7.6,6.3-10.5c2.7-3,5.9-5.3,9.5-6.9
	c3.7-1.7,7.7-2.5,12.1-2.5c5.7,0,10.4,1.2,14.2,3.5c3.8,2.4,6.8,5.3,9,9c2.3,3.6,3.8,7.6,4.7,11.9c0.9,4.3,1.2,8.4,1.1,12.3h-47.9
	c-0.1,2.8,0.2,5.5,1,8c0.7,2.5,1.9,4.8,3.6,6.7c1.7,1.9,3.8,3.5,6.3,4.6c2.6,1.2,5.6,1.7,9,1.7c4.5,0,8.1-1,11-3.1
	c2.8-2.1,4.7-5.2,5.6-9.4h10.4C463.2,150.7,460.1,156.1,455.3,159.7 M452.7,118.6c-0.9-2.2-2.2-4.2-3.8-5.8
	c-1.6-1.6-3.5-2.9-5.7-3.8c-2.2-0.9-4.6-1.4-7.2-1.4c-2.7,0-5.2,0.5-7.4,1.4c-2.2,1-4.1,2.3-5.6,3.9c-1.6,1.7-2.8,3.6-3.7,5.8
	c-0.9,2.2-1.4,4.5-1.6,7h36.8C454.2,123.2,453.7,120.8,452.7,118.6"/>
<path class="st2" d="M482.7,99.8v10.2h0.2c4.4-7.8,11.3-11.6,20.8-11.6c4.2,0,7.7,0.6,10.5,1.7c2.8,1.2,5.1,2.8,6.8,4.8
	c1.7,2.1,3,4.5,3.7,7.4c0.7,2.8,1.1,6,1.1,9.5v42.1h-10.5v-43.4c0-4-1.2-7.1-3.5-9.4c-2.3-2.3-5.5-3.5-9.5-3.5c-3.2,0-6,0.5-8.4,1.5
	s-4.3,2.4-5.9,4.2c-1.6,1.8-2.7,3.9-3.5,6.4c-0.8,2.4-1.2,5.1-1.2,8v36.2h-10.5v-64H482.7z"/>
<rect x="540.1" y="75.4" class="st2" width="13" height="88.4"/>
<path class="st2" d="M597.1,75.4c13.6,0,24.1,3.5,31.5,10.4c7.3,6.9,11,17.5,11,31.7c0,7.4-0.8,14-2.5,19.8
	c-1.7,5.7-4.2,10.6-7.7,14.5c-3.5,3.9-7.9,6.9-13.3,9c-5.4,2.1-11.7,3.1-19.1,3.1h-30.3V75.4H597.1z M598.1,153.9c1.3,0,3-0.1,5-0.3
	c2-0.2,4.1-0.7,6.3-1.5c2.2-0.8,4.4-1.9,6.6-3.4c2.2-1.5,4.2-3.5,5.9-6.1c1.7-2.6,3.2-5.8,4.3-9.6c1.1-3.8,1.7-8.5,1.7-13.9
	c0-5.3-0.5-10-1.5-14.2c-1-4.2-2.7-7.7-5.1-10.7c-2.4-2.9-5.4-5.2-9.1-6.7c-3.7-1.5-8.3-2.3-13.8-2.3h-19.8v68.6H598.1z"/>
<polygon class="st0" points="96.8,17.5 96.8,177.4 96.8,197.5 128.8,182.4 128.8,1.9 "/>
<polyline class="st1" points="207.6,70.3 212,116.2 150.1,102.7 "/>
<path class="st1" d="M134.4,61.1v20.3c13.4,2.3,25.4,6.7,35,12.6l22.6-14C176.5,70.5,156.6,63.8,134.4,61.1 M32.8,129
	c0-22.7,24.7-41.8,58.4-47.6V61.1C39.6,67.3,0.8,95.3,0.8,129c0,34.9,41.7,63.7,96,68.5v-20.1C60.2,172.9,32.8,152.9,32.8,129"/>
<path class="st2" d="M248,102.2c1.8-5.6,4.4-10.5,8-14.8c3.6-4.3,8-7.7,13.3-10.3c5.3-2.6,11.4-3.8,18.5-3.8c7,0,13.2,1.3,18.5,3.8
	c5.3,2.6,9.7,6,13.3,10.3c3.5,4.3,6.2,9.2,8,14.8c1.8,5.6,2.7,11.4,2.7,17.4c0,6-0.9,11.8-2.7,17.4c-1.8,5.6-4.4,10.5-8,14.8
	c-3.6,4.3-8,7.7-13.3,10.2c-5.3,2.5-11.4,3.8-18.5,3.8c-7,0-13.2-1.3-18.5-3.8c-5.3-2.5-9.7-5.9-13.3-10.2c-3.6-4.3-6.2-9.2-8-14.8
	c-1.8-5.6-2.7-11.4-2.7-17.4C245.3,113.6,246.2,107.8,248,102.2 M258.8,132.8c1.2,4.3,3,8.2,5.5,11.7c2.5,3.5,5.7,6.3,9.5,8.4
	c3.9,2.1,8.5,3.2,13.9,3.2c5.4,0,10-1.1,13.9-3.2c3.9-2.1,7.1-4.9,9.5-8.4c2.5-3.5,4.3-7.4,5.5-11.7c1.2-4.3,1.7-8.7,1.7-13.2
	c0-4.5-0.6-8.9-1.7-13.2c-1.2-4.3-3-8.2-5.5-11.7c-2.5-3.5-5.7-6.3-9.5-8.4c-3.9-2.1-8.5-3.2-13.9-3.2c-5.4,0-10,1.1-13.9,3.2
	c-3.9,2.1-7.1,4.9-9.5,8.4c-2.5,3.5-4.3,7.4-5.5,11.7c-1.2,4.3-1.7,8.7-1.7,13.2C257.1,124.1,257.7,128.5,258.8,132.8"/>
<path class="st2" d="M349.9,99.8v8.7h0.2c1.7-3.5,4.5-6.1,8.2-7.7c3.7-1.6,7.8-2.4,12.3-2.4c5,0,9.3,0.9,12.9,2.7
	c3.7,1.8,6.7,4.3,9.2,7.4c2.4,3.1,4.3,6.7,5.5,10.7c1.2,4,1.9,8.3,1.9,12.9c0,4.5-0.6,8.8-1.8,12.9c-1.2,4-3,7.6-5.5,10.6
	c-2.4,3-5.5,5.4-9.2,7.1c-3.7,1.7-8,2.6-12.8,2.6c-1.6,0-3.3-0.2-5.3-0.5c-1.9-0.3-3.9-0.9-5.8-1.6c-1.9-0.7-3.7-1.8-5.4-3
	c-1.7-1.3-3.1-2.9-4.3-4.8h-0.2v33h-10.5V99.8H349.9z M387.7,122.5c-0.8-2.8-2-5.4-3.6-7.6c-1.6-2.2-3.7-4-6.2-5.3
	c-2.5-1.3-5.5-2-8.9-2c-3.6,0-6.6,0.7-9,2.1c-2.5,1.4-4.5,3.2-6.1,5.5c-1.6,2.3-2.7,4.9-3.4,7.7c-0.7,2.9-1.1,5.8-1.1,8.8
	c0,3.1,0.4,6.2,1.1,9.1c0.7,2.9,1.9,5.5,3.5,7.7c1.6,2.2,3.7,4,6.3,5.4c2.6,1.4,5.7,2,9.3,2c3.6,0,6.7-0.7,9.1-2.1
	c2.4-1.4,4.4-3.3,5.9-5.6c1.5-2.3,2.6-5,3.2-7.9c0.7-3,1-6,1-9.2C388.9,128.3,388.5,125.4,387.7,122.5"/>
<path class="st2" d="M455.3,159.7c-4.8,3.6-10.8,5.5-18.1,5.5c-5.1,0-9.6-0.8-13.3-2.5c-3.8-1.7-6.9-4-9.5-6.9
	c-2.6-3-4.5-6.5-5.8-10.7c-1.3-4.1-2-8.6-2.2-13.5c0-4.9,0.7-9.3,2.2-13.4c1.5-4,3.6-7.6,6.3-10.5c2.7-3,5.9-5.3,9.5-6.9
	c3.7-1.7,7.7-2.5,12.1-2.5c5.7,0,10.4,1.2,14.2,3.5c3.8,2.4,6.8,5.3,9,9c2.3,3.6,3.8,7.6,4.7,11.9c0.9,4.3,1.2,8.4,1.1,12.3h-47.9
	c-0.1,2.8,0.2,5.5,1,8c0.7,2.5,1.9,4.8,3.6,6.7c1.7,1.9,3.8,3.5,6.3,4.6c2.6,1.2,5.6,1.7,9,1.7c4.5,0,8.1-1,11-3.1
	c2.8-2.1,4.7-5.2,5.6-9.4h10.4C463.2,150.7,460.1,156.1,455.3,159.7 M452.7,118.6c-0.9-2.2-2.2-4.2-3.8-5.8
	c-1.6-1.6-3.5-2.9-5.7-3.8c-2.2-0.9-4.6-1.4-7.2-1.4c-2.7,0-5.2,0.5-7.4,1.4c-2.2,1-4.1,2.3-5.6,3.9c-1.6,1.7-2.8,3.6-3.7,5.8
	c-0.9,2.2-1.4,4.5-1.6,7h36.8C454.2,123.2,453.7,120.8,452.7,118.6"/>
<path class="st2" d="M482.7,99.8v10.2h0.2c4.4-7.8,11.3-11.6,20.8-11.6c4.2,0,7.7,0.6,10.5,1.7c2.8,1.2,5.1,2.8,6.8,4.8
	c1.7,2.1,3,4.5,3.7,7.4c0.7,2.8,1.1,6,1.1,9.5v42.1h-10.5v-43.4c0-4-1.2-7.1-3.5-9.4c-2.3-2.3-5.5-3.5-9.5-3.5c-3.2,0-6,0.5-8.4,1.5
	s-4.3,2.4-5.9,4.2c-1.6,1.8-2.7,3.9-3.5,6.4c-0.8,2.4-1.2,5.1-1.2,8v36.2h-10.5v-64H482.7z"/>
<rect x="540.1" y="75.4" class="st2" width="13" height="88.4"/>
<path class="st2" d="M597.1,75.4c13.6,0,24.1,3.5,31.5,10.4c7.3,6.9,11,17.5,11,31.7c0,7.4-0.8,14-2.5,19.8
	c-1.7,5.7-4.2,10.6-7.7,14.5c-3.5,3.9-7.9,6.9-13.3,9c-5.4,2.1-11.7,3.1-19.1,3.1h-30.3V75.4H597.1z M598.1,153.9c1.3,0,3-0.1,5-0.3
	c2-0.2,4.1-0.7,6.3-1.5c2.2-0.8,4.4-1.9,6.6-3.4c2.2-1.5,4.2-3.5,5.9-6.1c1.7-2.6,3.2-5.8,4.3-9.6c1.1-3.8,1.7-8.5,1.7-13.9
	c0-5.3-0.5-10-1.5-14.2c-1-4.2-2.7-7.7-5.1-10.7c-2.4-2.9-5.4-5.2-9.1-6.7c-3.7-1.5-8.3-2.3-13.8-2.3h-19.8v68.6H598.1z"/>
</svg>
