<?xml version="1.0" encoding="utf-8"?>
<!-- Generator: Adobe Illustrator 27.0.0, SVG Export Plug-In . SVG Version: 6.00 Build 0)  -->
<svg version="1.1" id="Ebene_1" xmlns="http://www.w3.org/2000/svg" xmlns:xlink="http://www.w3.org/1999/xlink" x="0px" y="0px"
	 viewBox="0 0 80 18" style="enable-background:new 0 0 80 18;" xml:space="preserve">
<style type="text/css">
	.st0{enable-background:new    ;}
</style>
<g class="st0">
	<path d="M10.3,11.1c0,1.1-0.5,2-1.4,2.7c-0.9,0.7-2.2,1-3.8,1c-0.9,0-1.7-0.1-2.4-0.2c-0.7-0.2-1.3-0.4-1.9-0.6v-2.7h0.3
		c0.6,0.5,1.3,0.8,2,1.1c0.7,0.3,1.5,0.4,2.1,0.4c0.2,0,0.4,0,0.7,0c0.3,0,0.5-0.1,0.7-0.2c0.2-0.1,0.4-0.2,0.5-0.3
		c0.1-0.1,0.2-0.3,0.2-0.6c0-0.2-0.1-0.5-0.3-0.6c-0.2-0.2-0.5-0.3-0.9-0.4c-0.4-0.1-0.9-0.2-1.3-0.3s-0.9-0.2-1.3-0.3
		c-0.9-0.3-1.6-0.7-2-1.2C1,8.2,0.8,7.5,0.8,6.7c0-1,0.5-1.9,1.4-2.6c0.9-0.7,2.1-1,3.6-1c0.7,0,1.5,0.1,2.2,0.2
		c0.7,0.1,1.3,0.3,1.9,0.5v2.6H9.6c-0.5-0.4-1-0.7-1.7-0.9s-1.3-0.4-2-0.4c-0.2,0-0.5,0-0.7,0C5,5.3,4.7,5.4,4.5,5.5
		C4.3,5.6,4.1,5.7,4,5.8C3.9,6,3.8,6.2,3.8,6.4c0,0.3,0.1,0.5,0.3,0.7s0.7,0.3,1.3,0.4c0.4,0.1,0.8,0.2,1.2,0.2C7,7.8,7.4,7.9,7.8,8
		c0.9,0.3,1.5,0.7,1.9,1.1C10.1,9.7,10.3,10.3,10.3,11.1z"/>
	<path d="M22.7,14.6h-3l-0.8-2.3h-4.2L14,14.6h-2.9l4.1-11.2h3.3L22.7,14.6z M18.2,10.3l-1.4-4l-1.4,4H18.2z"/>
	<path d="M36.1,14.6h-2.9V7.1L31.1,12h-2L27,7.1v7.5h-2.7V3.4h3.4L30.2,9l2.5-5.6h3.4V14.6z"/>
	<path d="M47,14.6h-8.1V3.4h2.9v9H47V14.6z"/>
	<path d="M62.8,14.6H54v-1.9c0.7-0.5,1.3-1,2-1.6c0.7-0.5,1.2-1,1.6-1.4c0.6-0.6,1-1.1,1.3-1.5s0.4-0.9,0.4-1.3
		c0-0.5-0.2-0.9-0.5-1.2S58,5.4,57.4,5.4c-0.5,0-0.9,0.1-1.5,0.3c-0.5,0.2-1,0.4-1.4,0.7h-0.2V3.9c0.4-0.2,0.9-0.3,1.6-0.5
		c0.7-0.2,1.4-0.2,2.1-0.2c1.4,0,2.5,0.3,3.2,0.9c0.7,0.6,1.1,1.4,1.1,2.5c0,0.7-0.2,1.4-0.5,2c-0.4,0.6-0.9,1.3-1.6,2
		c-0.5,0.4-0.9,0.8-1.4,1.2c-0.5,0.4-0.8,0.6-1,0.7h5V14.6z"/>
	<path d="M67.7,14.6h-2.8v-3h2.8V14.6z"/>
	<path d="M79.3,9c0,0.9-0.1,1.8-0.3,2.5c-0.2,0.7-0.4,1.4-0.8,1.8c-0.4,0.5-0.8,0.9-1.4,1.1c-0.6,0.2-1.3,0.4-2.2,0.4
		c-0.8,0-1.6-0.1-2.1-0.4c-0.6-0.2-1.1-0.6-1.4-1.1c-0.4-0.5-0.6-1.1-0.8-1.8C70.1,10.8,70,9.9,70,9c0-1,0.1-1.8,0.3-2.5
		s0.4-1.3,0.8-1.8c0.4-0.5,0.9-0.9,1.4-1.1s1.3-0.4,2.1-0.4c0.9,0,1.6,0.1,2.2,0.4c0.6,0.3,1.1,0.6,1.4,1.1c0.4,0.5,0.6,1.1,0.8,1.8
		C79.2,7.2,79.3,8,79.3,9z M76.3,9c0-1.4-0.1-2.3-0.4-2.9c-0.3-0.6-0.7-0.9-1.3-0.9c-0.6,0-1.1,0.3-1.3,0.9C73,6.7,72.9,7.6,72.9,9
		c0,1.3,0.1,2.3,0.4,2.9c0.3,0.6,0.7,0.9,1.3,0.9s1-0.3,1.3-0.9S76.3,10.3,76.3,9z"/>
</g>
</svg>
